<svg version="1.1" id="Layer_1" xmlns="http://www.w3.org/2000/svg" xmlns:xlink="http://www.w3.org/1999/xlink" x="0px" y="0px"
	 width="100%" viewBox="0 0 1024 1024" enable-background="new 0 0 1024 1024" xml:space="preserve">
<path fill="#000000" opacity="1.000000" stroke="none" 
	d="
M614.853638,601.000000 
	C614.866272,533.183838 614.889771,465.867615 614.878784,398.551422 
	C614.877563,390.797852 614.552795,390.364868 606.605164,390.456573 
	C596.622253,390.571716 586.638794,390.959930 576.666138,391.447174 
	C573.223633,391.615356 571.538696,390.313721 570.592285,387.065613 
	C567.637085,376.922607 562.896912,367.604492 557.321960,358.644165 
	C555.050537,354.993378 553.364746,350.950073 551.666626,346.976776 
	C548.286865,339.068909 543.689087,332.233459 537.339722,326.209534 
	C530.974609,320.170654 525.643250,313.025818 519.998230,306.249512 
	C515.511475,300.863464 511.005646,295.534729 505.426788,291.205444 
	C504.035858,290.126068 502.359924,289.101379 502.236816,286.909180 
	C503.716400,284.956207 505.887085,285.695374 507.748596,285.694885 
	C608.891663,285.669342 710.034729,285.705536 811.177795,285.649658 
	C815.507202,285.647278 817.458374,286.782349 817.430847,291.572662 
	C817.248657,323.231018 817.238464,354.891052 817.372009,386.549713 
	C817.391357,391.132233 816.031067,391.936127 811.542786,391.553741 
	C796.740601,390.292694 781.938293,392.458923 767.114075,392.250580 
	C753.313477,392.056610 739.541687,390.487762 725.695923,391.950592 
	C721.315674,392.413361 720.182251,393.995544 720.186707,398.141968 
	C720.309570,512.115112 720.320984,626.088257 720.400940,740.061462 
	C720.403870,744.211731 720.963928,748.359192 721.160706,752.512817 
	C721.260864,754.627991 720.588623,755.711731 717.961731,755.694641 
	C685.640686,755.484863 653.318481,755.354004 620.997009,755.414612 
	C616.777893,755.422546 614.890625,754.389465 615.063721,749.906189 
	C616.220642,719.932617 614.351501,689.963684 614.852295,659.983337 
	C615.177795,640.494324 614.875427,620.994812 614.853638,601.000000 
M681.734924,451.500000 
	C681.709473,422.836121 681.682861,394.172241 681.660217,365.508362 
	C681.657593,362.175354 681.708435,358.842041 681.677063,355.509430 
	C681.653015,352.948608 682.713928,352.166351 685.365112,352.253296 
	C714.850403,353.220184 744.347290,352.377991 773.837158,352.724884 
	C777.640503,352.769623 778.809631,351.246063 778.695312,347.677521 
	C778.519348,342.183990 778.639404,336.680389 778.661255,331.181183 
	C778.688477,324.329895 778.700439,324.269379 771.991089,324.269287 
	C704.661865,324.268494 637.332581,324.288971 570.003357,324.305634 
	C569.170288,324.305847 568.337097,324.327637 567.504272,324.350983 
	C564.869446,324.424774 563.842163,325.884186 564.506653,328.300995 
	C565.115601,330.515778 565.738892,332.695404 566.929016,334.791779 
	C568.958801,338.367310 571.237671,342.147430 571.868469,346.088593 
	C572.770996,351.727814 575.446594,352.843353 580.641846,352.785034 
	C603.290771,352.530609 625.960144,353.551331 648.577698,351.628479 
	C652.930725,351.258423 654.704163,352.723816 654.221375,357.228912 
	C653.547546,363.516449 653.300293,369.834106 653.305298,376.176941 
	C653.356812,441.673218 653.338440,507.169617 653.304565,572.665955 
	C653.280518,619.162598 653.238708,665.659302 653.084717,712.155640 
	C653.071594,716.124939 654.058411,717.936768 658.386108,717.730774 
	C664.704834,717.429871 671.053101,717.503479 677.379700,717.704468 
	C681.272522,717.828125 682.896057,716.326721 682.668457,712.444214 
	C682.317932,706.462280 681.920898,700.470886 681.913635,694.483032 
	C681.815796,613.822083 681.782104,533.161011 681.734924,451.500000 
z"/>
<path fill="#000000" opacity="1.000000" stroke="none" 
	d="
M375.012512,577.312500 
	C359.334930,577.505493 361.442078,575.860779 361.246063,590.312744 
	C360.855194,619.128296 360.596466,647.946289 360.435242,676.764099 
	C360.298340,701.240417 360.338043,725.721436 361.388367,750.179810 
	C361.599060,755.087341 359.980347,756.472412 355.185577,756.273926 
	C323.214050,754.950806 291.218445,755.373047 259.231293,755.413208 
	C254.743469,755.418823 253.627228,753.906799 253.629364,749.622864 
	C253.705017,597.658875 253.672546,445.694855 253.655075,293.730804 
	C253.654144,285.627380 253.652802,285.712097 261.551239,285.768585 
	C272.547363,285.847229 283.545715,285.680695 294.540924,285.806915 
	C308.694824,285.969360 322.850464,286.662048 336.998291,286.501801 
	C356.150452,286.284912 375.294952,285.521942 394.456451,285.708313 
	C418.842987,285.945526 441.950653,291.294250 463.591858,302.661957 
	C503.227509,323.481842 528.210144,355.824829 538.789795,399.182831 
	C545.361023,426.113495 543.243652,452.917542 533.745728,478.674194 
	C529.289246,490.759369 523.198547,502.353638 514.287476,512.527527 
	C508.273712,519.393494 503.054352,527.099304 496.465149,533.583435 
	C482.711151,547.117981 466.194580,556.237244 448.629791,563.825684 
	C425.246033,573.927979 400.579224,576.624878 375.012512,577.312500 
M292.324097,410.499939 
	C292.311432,454.318115 292.288788,498.136292 292.288574,541.954468 
	C292.288330,598.435059 292.354248,654.915771 292.227417,711.396057 
	C292.216888,716.084229 293.411530,718.019714 298.361084,717.733826 
	C304.670807,717.369385 311.027557,717.440491 317.345490,717.729492 
	C321.602325,717.924133 322.849976,716.237671 322.707977,712.196716 
	C322.327911,701.381226 322.061188,690.555359 322.072662,679.734009 
	C322.088440,664.912231 322.589142,650.090149 322.543152,635.269226 
	C322.480652,615.126953 322.118774,594.985352 321.844208,574.844055 
	C321.696686,564.021851 321.563232,553.197571 321.211182,542.381165 
	C321.097351,538.883728 323.017517,538.585876 325.604156,538.662354 
	C346.931458,539.292480 368.218536,537.408752 389.541321,537.649902 
	C410.130554,537.882874 429.342987,532.492249 447.435394,522.949158 
	C489.835327,500.584839 514.697510,452.718719 500.931793,400.850342 
	C490.269348,360.674866 447.864014,325.447784 399.767487,324.467072 
	C365.793549,323.774323 331.793884,324.404175 297.806763,324.231506 
	C293.275482,324.208496 292.220154,325.778839 292.246216,330.027679 
	C292.408508,356.517578 292.325775,383.009003 292.324097,410.499939 
z"/>
<path fill="#000000" opacity="1.000000" stroke="none" 
	d="
M549.345703,730.000122 
	C549.344849,737.164368 549.194946,743.833252 549.401672,750.491028 
	C549.516052,754.172729 548.201660,755.423340 544.500000,755.396606 
	C532.866943,755.312683 521.227173,754.845581 508.694641,755.826599 
	C508.694641,726.616211 508.694641,697.666138 508.694641,667.177246 
	C498.363037,675.995361 487.294769,673.975586 476.644745,674.148926 
	C473.845459,674.194458 472.200409,675.007446 471.948273,677.944031 
	C471.849304,679.096985 471.380463,680.244507 471.429413,681.379456 
	C471.699615,687.646057 470.530579,692.834534 463.636871,695.305847 
	C461.046295,696.234619 459.401489,698.949463 458.265350,701.648499 
	C457.666992,703.070068 456.771759,704.420959 455.036865,704.342957 
	C453.294891,704.264587 452.648621,702.624268 451.954895,701.365845 
	C450.352966,698.459778 450.612671,695.160034 450.753540,692.060364 
	C451.239471,681.368652 450.028229,670.799255 449.137207,660.184631 
	C447.992493,646.547546 449.187927,632.909790 449.645844,619.268982 
	C449.818756,614.117188 452.211853,608.320312 446.886658,603.919922 
	C445.802795,603.024292 446.836426,601.418091 447.680145,600.334167 
	C449.935730,597.436462 452.185638,594.501526 455.437958,592.639404 
	C469.741180,584.449890 484.059204,576.286133 498.391754,568.148071 
	C506.669952,563.447632 515.743774,565.379639 524.336304,565.961975 
	C542.329224,567.181396 560.296265,566.387146 578.270508,566.626587 
	C581.435242,566.668762 584.600952,566.652222 587.766113,566.635010 
	C589.893860,566.623474 591.346680,567.304749 591.272095,569.758911 
	C590.918091,581.420166 592.474121,592.997498 592.790833,604.628967 
	C592.803162,605.081604 592.492310,605.543030 592.230042,606.291443 
	C578.070129,604.440186 563.873962,605.469482 549.345703,605.194763 
	C549.345703,646.961182 549.345703,688.230591 549.345703,730.000122 
M507.738586,635.033081 
	C507.736694,626.370422 507.728851,617.707825 507.736664,609.045166 
	C507.738953,606.525635 507.528412,604.426025 504.074310,604.449219 
	C490.470215,604.540466 476.865112,604.486694 462.496124,604.486694 
	C466.158295,608.751343 467.574036,612.778442 468.136230,617.088257 
	C468.953583,623.353760 469.518707,629.651855 470.312683,635.920715 
	C471.066193,641.869812 472.703003,643.403076 478.627808,643.732727 
	C487.017273,644.199524 495.212708,642.797913 503.373993,641.036377 
	C506.247681,640.416138 507.813416,638.937134 507.738586,635.033081 
z"/>
<path fill="#000000" opacity="1.000000" stroke="none" 
	d="
M321.832489,440.999817 
	C321.834167,411.393524 321.834167,382.287292 321.834167,353.589264 
	C322.445435,353.079224 322.573120,352.879913 322.697693,352.881805 
	C351.981201,353.330017 381.344482,350.386505 410.517914,353.102173 
	C430.214844,354.935669 445.858002,366.044220 458.503357,381.182922 
	C477.084351,403.427704 481.685913,428.888214 472.026581,455.536072 
	C463.417969,479.285217 447.114716,496.727478 421.624084,504.373871 
	C408.006256,508.458801 394.209869,509.722260 380.271454,510.087036 
	C362.453583,510.553345 344.613983,510.132080 326.786316,510.325592 
	C322.679718,510.370178 321.688110,508.705963 321.711121,504.977722 
	C321.841888,483.819000 321.808411,462.659271 321.832489,440.999817 
M409.463898,393.011932 
	C394.514648,389.731628 379.426331,390.192505 364.315582,391.357635 
	C360.955414,391.616730 361.162140,394.288483 361.049286,396.570007 
	C359.864594,420.519714 360.172943,444.464447 361.200531,468.413269 
	C361.360565,472.143127 363.132507,472.866425 366.302338,472.606537 
	C370.608582,472.253510 374.927612,472.001617 379.246185,471.865051 
	C388.535004,471.571320 397.937195,472.302643 407.041046,470.081360 
	C424.053436,465.930481 436.835510,451.224609 437.633942,435.444733 
	C438.665070,415.064972 428.701935,399.721405 409.463898,393.011932 
z"/>
</svg>