<?xml version="1.0" standalone="no"?>
<!DOCTYPE svg PUBLIC "-//W3C//DTD SVG 20010904//EN"
 "http://www.w3.org/TR/2001/REC-SVG-20010904/DTD/svg10.dtd">
<svg version="1.0" xmlns="http://www.w3.org/2000/svg"
 width="640.000000pt" height="640.000000pt" viewBox="0 0 640.000000 640.000000"
 preserveAspectRatio="xMidYMid meet">

<g transform="translate(0.000000,640.000000) scale(0.100000,-0.100000)"
fill="#000000" stroke="none">
<path d="M3715 5685 l-46 -36 -59 12 c-140 27 -382 -3 -523 -64 -28 -13 -58
-22 -64 -20 -7 3 -13 -3 -13 -12 0 -12 -5 -15 -22 -10 -17 6 -20 4 -15 -9 4
-9 2 -16 -3 -16 -5 0 -21 -17 -35 -37 -26 -39 -34 -100 -14 -120 8 -8 -19 -40
-93 -114 -114 -114 -178 -206 -238 -347 -37 -87 -90 -255 -90 -288 0 -9 -7
-22 -14 -28 -29 -22 -161 -368 -206 -540 -16 -59 -31 -110 -33 -112 -6 -6 -44
169 -71 326 -42 249 -57 524 -36 669 5 36 6 69 3 74 -16 25 -26 -52 -30 -213
-4 -138 0 -209 16 -338 21 -160 73 -448 91 -500 l10 -27 -23 29 c-12 16 -65
86 -117 156 -125 167 -247 310 -265 310 -21 0 -20 -1 27 -51 119 -125 389
-485 408 -544 23 -71 96 -228 143 -308 l47 -78 -188 127 c-103 70 -221 153
-262 183 -97 73 -100 75 -100 59 0 -17 120 -105 377 -276 117 -78 216 -150
222 -160 7 -13 0 -31 -30 -77 -58 -88 -61 -109 -44 -276 8 -79 15 -168 15
-197 l0 -52 -27 7 c-54 15 -130 9 -160 -13 -16 -12 -52 -66 -84 -127 -33 -63
-77 -129 -106 -160 -55 -58 -78 -112 -69 -160 6 -31 1 -37 -169 -186 -145
-128 -186 -171 -161 -171 2 0 79 67 172 150 l169 149 19 -27 c58 -80 180 -166
301 -213 93 -36 210 -48 294 -30 30 6 55 10 57 9 8 -8 -30 -179 -60 -270 -113
-345 -317 -578 -533 -608 -61 -8 -171 3 -205 21 -11 6 -22 8 -26 5 -24 -24
135 -61 222 -51 247 27 467 284 581 679 14 49 31 121 37 160 8 52 19 79 38
102 24 28 27 41 33 137 4 58 14 127 23 154 30 87 8 208 -48 269 -17 20 -18 27
-8 81 11 64 3 152 -25 253 -21 80 -20 81 34 29 69 -66 141 -92 256 -93 81 -1
95 2 140 27 47 27 50 27 63 10 30 -40 62 -114 97 -226 l37 -118 -45 -44 c-80
-76 -83 -146 -16 -330 28 -75 29 -86 23 -176 l-6 -96 40 -29 c39 -28 41 -31
47 -99 36 -400 194 -780 408 -981 117 -111 258 -160 388 -136 34 6 64 14 67
17 14 13 -11 15 -71 4 -169 -31 -358 75 -494 276 -137 203 -252 538 -269 783
l-7 91 49 -15 c73 -23 186 -21 264 6 97 32 233 107 294 162 l54 48 58 -93 c32
-50 105 -143 162 -206 94 -105 144 -183 175 -274 9 -26 30 -21 22 6 -15 49
-67 151 -97 190 -18 23 -65 76 -104 117 -80 85 -67 46 -124 380 -17 96 -35
226 -42 288 -12 112 -28 151 -28 67 0 -57 33 -296 65 -468 14 -72 23 -132 22
-134 -2 -1 -24 32 -49 75 -35 58 -45 84 -41 104 10 54 -6 96 -62 156 -47 51
-58 71 -86 158 -40 125 -79 204 -119 237 -30 26 -90 44 -108 33 -16 -10 -40
101 -56 254 -17 154 -27 203 -56 260 -13 26 -17 49 -13 83 l6 47 61 0 c122 0
276 47 276 85 0 20 -7 19 -37 -5 -37 -29 -111 -48 -214 -56 -81 -6 -92 -5
-112 13 -36 33 -61 42 -122 45 l-57 3 7 63 c5 49 3 68 -9 87 -17 26 -103 70
-158 80 -38 7 -38 8 -38 56 0 57 2 65 14 61 39 -13 325 77 409 128 27 17 51
30 55 30 13 0 -115 -124 -173 -167 l-60 -45 122 4 121 4 6 -29 c3 -16 6 -47 6
-68 0 -23 5 -39 11 -39 9 0 10 20 5 69 l-6 70 47 6 c228 30 376 88 470 187 47
50 92 148 110 240 29 155 -2 414 -80 659 l-34 106 29 16 c24 14 28 23 28 58 0
53 -37 123 -140 262 -44 59 -75 107 -70 107 6 0 10 5 10 10 0 6 -8 10 -17 8
-13 -2 -19 5 -21 25 -3 26 -22 39 -22 15 0 -7 -33 20 -72 59 -40 39 -101 89
-135 110 l-61 40 29 17 c47 28 61 46 48 62 -18 22 -44 16 -94 -21z m-193 -739
c95 -113 197 -204 260 -234 20 -9 42 -27 49 -40 9 -15 18 -20 28 -16 9 4 34 9
57 12 36 3 44 0 67 -28 32 -37 35 -85 10 -137 -18 -38 -65 -73 -99 -73 -18 0
-23 -10 -34 -72 -40 -228 -143 -389 -296 -466 -147 -74 -295 -69 -463 15 -154
77 -263 225 -312 423 -19 73 -21 102 -16 215 9 175 11 183 61 206 58 26 105
24 168 -9 58 -31 78 -31 78 -1 0 25 -66 68 -121 77 l-44 8 115 56 c127 63 214
117 281 177 l44 39 38 -22 c21 -11 79 -70 129 -130z m-1043 -466 c-5 -41 -9
-119 -8 -172 2 -56 -2 -102 -8 -110 -38 -47 -56 -141 -35 -176 5 -7 7 14 5 45
-3 46 0 65 17 92 12 18 23 32 25 30 2 -3 11 -47 20 -98 9 -52 27 -121 40 -154
l25 -59 -31 -102 c-24 -80 -57 -254 -59 -311 -1 -33 -142 237 -183 350 -31 87
-26 130 37 319 44 133 157 428 162 423 2 -1 -2 -36 -7 -77z m697 -632 c19 -23
19 -23 -2 -5 -31 26 -90 22 -118 -8 -23 -24 -24 -25 -29 -5 -4 16 -13 20 -47
20 -77 0 -107 -42 -55 -76 52 -34 56 -86 9 -104 -51 -20 -43 -74 20 -137 49
-49 49 -55 -2 -17 -19 15 -43 47 -54 71 -19 43 -19 45 -1 65 l18 21 -63 -6
c-80 -8 -149 -38 -161 -69 -4 -13 -14 -54 -21 -91 -9 -49 -16 -65 -23 -58 -20
20 -51 11 -90 -26 -37 -37 -39 -37 -53 -19 -26 36 -16 128 37 326 l32 122 38
-44 c24 -29 59 -54 96 -71 72 -32 222 -60 240 -45 21 17 15 36 -22 69 -39 36
-46 73 -16 89 26 13 104 13 118 -1 8 -8 17 -7 34 5 35 24 92 21 115 -6z m21
-60 c-3 -7 -5 -2 -5 12 0 14 2 19 5 13 2 -7 2 -19 0 -25z m-44 -125 c-7 -2
-21 -2 -30 0 -10 3 -4 5 12 5 17 0 24 -2 18 -5z m-518 -233 c3 -5 -17 -38 -45
-72 -28 -35 -65 -91 -82 -126 -30 -61 -31 -65 -24 -160 4 -53 11 -101 17 -107
8 -7 9 22 4 97 -7 103 -6 110 19 161 29 59 136 194 151 189 17 -4 23 -50 13
-91 -7 -29 -19 -46 -44 -60 -18 -11 -45 -37 -59 -59 -23 -35 -27 -52 -32 -161
-4 -78 -3 -121 4 -121 6 0 13 50 17 116 4 70 12 126 21 144 22 42 79 83 105
75 26 -8 25 -19 -5 -99 -30 -81 -32 -144 -5 -246 12 -45 20 -108 20 -157 0
-77 -2 -86 -40 -155 -22 -40 -53 -99 -68 -130 -24 -51 -30 -56 -52 -51 -46 11
-102 44 -146 88 l-44 44 29 43 c66 98 77 189 58 493 l-9 130 39 64 c44 74 119
161 138 161 8 0 17 -4 20 -10z m743 -93 c29 -31 118 -220 137 -292 8 -32 15
-74 15 -92 0 -18 5 -33 10 -33 35 0 -12 180 -83 322 -24 48 -42 90 -39 93 26
25 92 -33 140 -123 40 -76 49 -111 68 -287 13 -121 25 -177 61 -290 25 -77 47
-163 50 -190 5 -49 4 -52 -35 -87 -70 -63 -193 -77 -206 -23 -3 13 -29 54 -56
90 -65 86 -61 78 -120 256 -37 111 -67 183 -111 257 -46 79 -59 111 -57 135 5
48 34 46 93 -5 46 -41 105 -141 105 -180 0 -17 17 -34 26 -26 7 7 -32 108 -70
183 -74 145 -91 219 -60 263 30 44 47 28 119 -116 48 -96 71 -164 86 -256 12
-72 29 -103 29 -53 -1 83 -64 268 -130 381 -23 38 -38 76 -36 83 8 20 40 15
64 -10z m-553 -38 c101 -35 229 -52 320 -44 50 4 66 3 55 -4 -22 -16 -198 -13
-277 3 -85 18 -213 65 -213 78 0 6 7 7 18 2 9 -4 53 -20 97 -35z m703 5 c-4
-3 -12 5 -18 18 -12 22 -12 22 6 6 10 -10 15 -20 12 -24z m-705 -70 c9 -9 -4
-34 -18 -34 -14 0 -27 25 -18 34 4 3 12 6 18 6 6 0 14 -3 18 -6z m165 -47 c2
-10 -3 -17 -12 -17 -18 0 -29 16 -21 31 9 14 29 6 33 -14z m147 -17 c0 -22
-29 -18 -33 3 -3 14 1 18 15 15 10 -2 18 -10 18 -18z m-234 -40 c53 -11 127
-20 163 -20 37 0 66 -4 66 -10 0 -24 -217 1 -343 40 -37 12 -67 25 -67 30 0 5
19 2 42 -6 23 -8 85 -23 139 -34z m-494 -366 c28 -8 24 -31 -19 -123 -22 -45
-33 -59 -39 -50 -16 26 -10 82 12 105 30 32 5 41 -26 10 -51 -51 -22 -151 65
-229 65 -58 112 -80 185 -85 49 -3 65 0 85 16 34 27 21 36 -25 17 -20 -9 -39
-14 -42 -11 -6 6 61 131 88 167 l19 24 19 -25 c24 -31 51 -112 51 -155 0 -18
-7 -50 -16 -71 -10 -25 -18 -80 -21 -149 -3 -69 -10 -118 -19 -132 -15 -25
-81 -48 -165 -58 -79 -10 -188 16 -295 70 -150 76 -244 175 -244 259 0 51 12
75 66 132 30 31 68 89 96 146 58 117 91 148 156 148 26 0 57 -3 69 -6z m1382
-123 c37 -26 73 -97 110 -215 39 -121 41 -124 101 -191 62 -69 73 -112 39
-159 -59 -82 -234 -188 -369 -222 -117 -30 -277 4 -341 72 -21 22 -21 26 -10
98 12 74 12 75 -24 178 -22 62 -38 131 -42 174 l-6 71 47 49 47 49 18 -41 c10
-22 32 -56 48 -75 36 -42 63 -81 63 -91 0 -12 -51 17 -82 46 -27 26 -48 33
-48 17 0 -14 67 -69 112 -92 150 -77 318 11 335 175 5 48 3 56 -11 56 -11 0
-16 -9 -17 -32 0 -29 -2 -27 -14 17 -8 28 -21 69 -29 93 l-15 42 30 0 c17 0
43 -9 58 -19z"/>
<path d="M3392 4774 c-36 -18 -52 -32 -52 -45 0 -30 23 -32 68 -9 58 30 120
28 188 -6 42 -21 57 -25 67 -15 18 18 -2 42 -63 74 -71 36 -137 36 -208 1z"/>
<path d="M2820 4580 c0 -23 10 -42 35 -67 32 -32 39 -35 78 -30 30 4 50 15 70
37 25 29 39 78 17 65 -5 -3 -10 -12 -10 -20 0 -19 -58 -65 -81 -65 -44 0 -88
38 -89 77 0 12 -4 25 -10 28 -6 4 -10 -7 -10 -25z"/>
<path d="M3370 4595 c0 -9 7 -31 15 -51 17 -41 71 -69 115 -59 31 7 74 49 85
83 10 34 -11 26 -26 -9 -17 -42 -70 -65 -111 -48 -29 12 -58 54 -58 84 0 8 -4
15 -10 15 -5 0 -10 -7 -10 -15z"/>
<path d="M3856 4559 c-36 -28 -33 -45 3 -18 24 18 38 20 70 15 43 -7 57 7 19
18 -40 10 -65 6 -92 -15z"/>
<path d="M3163 4485 c-1 -43 -9 -69 -37 -119 -20 -35 -36 -69 -36 -75 0 -25
41 -51 79 -51 57 0 61 18 5 22 -67 4 -76 23 -36 84 34 54 55 132 46 169 -10
42 -20 28 -21 -30z"/>
<path d="M3599 4407 c-20 -15 -39 -51 -39 -72 0 -26 55 -75 85 -75 38 0 75 41
75 84 0 58 -76 98 -121 63z"/>
<path d="M3396 4183 c-14 -88 -86 -149 -148 -125 -33 12 -44 10 -34 -7 12 -19
72 -24 104 -7 54 28 102 105 102 164 0 28 -18 9 -24 -25z"/>
<path d="M4220 4913 c0 -5 20 -24 45 -42 49 -35 65 -58 77 -111 7 -33 7 -33 4
8 -3 23 -10 49 -17 58 -22 27 -109 96 -109 87z"/>
<path d="M4744 4770 c30 -220 30 -414 0 -670 -20 -171 -55 -370 -66 -370 -4 0
-8 8 -8 18 0 9 -13 58 -29 107 -68 214 -231 572 -231 507 0 -4 25 -64 56 -132
87 -192 161 -382 184 -475 l21 -84 -32 -98 c-18 -54 -61 -153 -95 -220 -85
-169 -74 -171 138 -16 267 193 387 293 352 293 -3 0 -38 -26 -77 -58 -70 -57
-360 -276 -422 -319 -30 -21 -29 -18 30 100 33 67 75 166 92 219 25 74 49 122
102 200 109 160 238 337 292 399 27 32 45 60 40 63 -18 11 -133 -134 -290
-366 -52 -76 -94 -138 -95 -138 -2 0 5 39 15 88 57 287 83 697 56 876 -8 54
-21 103 -27 110 -10 8 -11 1 -6 -34z"/>
<path d="M4343 4635 c0 -33 2 -45 4 -27 2 18 2 45 0 60 -2 15 -4 0 -4 -33z"/>
<path d="M4350 4554 c0 -10 5 -26 10 -34 8 -11 9 -7 4 15 -8 37 -14 45 -14 19z"/>
<path d="M4290 3803 c0 -5 20 -60 45 -123 50 -126 115 -340 115 -380 0 -25 15
-58 23 -50 7 8 -22 160 -44 235 -32 105 -119 325 -130 325 -5 0 -9 -3 -9 -7z"/>
<path d="M1613 3643 c-15 -5 -17 -26 -4 -51 11 -20 42 -184 36 -190 -7 -7 -75
50 -75 63 0 7 -7 18 -16 25 -12 11 -18 10 -31 -3 -19 -19 -10 -47 15 -47 10 0
42 -18 71 -40 47 -34 58 -50 87 -120 18 -45 42 -97 53 -116 l20 -34 -29 0
c-43 0 -125 19 -146 34 -13 10 -18 28 -19 72 0 52 -3 59 -21 62 -28 4 -39 -26
-19 -48 18 -20 37 -80 26 -80 -19 0 -129 74 -156 105 -28 32 -32 34 -50 21
-16 -12 -17 -16 -6 -30 7 -9 20 -16 28 -16 9 0 42 -18 75 -40 33 -22 64 -40
69 -40 5 0 9 -5 9 -11 0 -6 -20 -9 -52 -7 -43 2 -53 0 -56 -15 -5 -26 24 -31
64 -12 39 18 70 17 212 -6 l83 -13 54 -81 c64 -96 111 -152 119 -144 4 3 -8
23 -25 45 -17 21 -48 64 -69 94 l-38 56 48 60 c48 61 93 86 160 88 33 1 35 40
3 44 -13 2 -23 -2 -23 -8 0 -9 -57 -40 -74 -40 -8 0 45 113 62 132 18 21 9 48
-17 48 -22 0 -36 -27 -21 -45 7 -8 1 -31 -22 -75 l-31 -63 -15 28 c-7 15 -17
48 -21 74 -5 37 -10 46 -26 46 -13 0 -21 -8 -23 -22 -2 -13 2 -23 8 -23 10 0
40 -57 54 -106 8 -28 -60 -120 -78 -105 -14 12 -82 145 -106 210 l-18 45 46
59 c25 32 57 66 71 76 30 22 23 54 -11 49 -17 -2 -23 -10 -24 -29 -1 -23 -81
-135 -90 -126 -13 12 -34 160 -29 198 5 47 -4 62 -32 52z"/>
<path d="M5565 3568 c-102 -36 -149 -121 -206 -373 -36 -156 -57 -225 -70
-225 -6 0 -8 4 -5 9 9 13 -12 147 -30 204 -22 66 -74 117 -120 117 -88 0 -127
-52 -229 -300 -26 -63 -64 -147 -86 -186 l-38 -72 24 -123 c22 -116 44 -288
62 -489 l8 -85 90 -8 c170 -16 321 19 369 86 28 38 27 100 -1 128 -11 12 -45
29 -74 39 l-53 18 50 7 c175 24 351 93 469 182 106 81 145 187 91 250 -23 26
-28 27 -112 27 -49 0 -107 -3 -129 -7 l-40 -7 25 17 c46 31 156 147 199 211
94 139 142 290 121 385 -31 148 -183 242 -315 195z"/>
<path d="M675 3445 c-61 -22 -130 -100 -151 -170 -15 -54 -15 -65 -1 -138 29
-149 158 -354 282 -449 30 -23 53 -43 52 -44 -1 -1 -29 2 -62 8 -33 5 -89 8
-125 5 -80 -6 -110 -33 -110 -101 0 -79 77 -165 220 -244 109 -61 278 -112
371 -112 51 0 50 -16 -1 -24 -23 -4 -54 -18 -72 -35 -28 -25 -33 -36 -32 -71
2 -54 28 -89 90 -120 45 -23 62 -25 199 -28 83 -2 169 1 193 5 l43 8 38 95
c21 52 47 115 59 140 11 25 51 126 87 225 37 99 83 220 102 269 l36 89 -19 35
c-28 52 -95 121 -125 127 -17 4 -33 0 -50 -14 -22 -17 -24 -26 -23 -93 2 -74
31 -217 65 -317 11 -30 18 -56 16 -58 -6 -6 -113 149 -160 232 -25 44 -73 146
-106 226 -98 233 -141 291 -216 291 -88 0 -149 -107 -157 -274 -2 -32 -6 -58
-10 -58 -9 0 -35 91 -76 260 -37 157 -63 225 -104 274 -57 70 -159 94 -253 61z"/>
<path d="M4698 2974 c19 -41 28 -51 30 -36 5 29 -24 92 -42 92 -13 0 -11 -11
12 -56z"/>
<path d="M5037 1963 c-4 -3 -7 -12 -7 -19 0 -23 -89 -148 -94 -133 -11 36 -13
74 -3 89 23 39 -24 69 -53 35 -11 -13 -9 -19 8 -38 14 -15 23 -42 27 -82 6
-53 3 -69 -24 -134 -17 -41 -31 -78 -31 -82 0 -5 15 -9 34 -9 26 0 36 -5 41
-21 4 -12 37 -53 74 -93 72 -76 106 -140 106 -196 0 -31 3 -35 25 -35 29 0 41
33 18 49 -14 10 -48 68 -48 80 0 3 26 -10 58 -28 31 -19 74 -40 94 -47 21 -7
39 -21 42 -32 7 -30 51 -19 51 13 0 22 -5 25 -36 26 -36 2 -143 49 -189 84
l-25 19 30 11 c17 6 42 9 57 6 15 -3 35 -3 43 0 19 8 20 38 1 53 -16 14 -46 4
-46 -14 0 -8 -22 -19 -55 -26 -55 -12 -56 -12 -86 17 -30 28 -99 117 -99 126
0 3 41 8 90 12 50 4 115 11 145 17 50 9 60 7 126 -21 40 -17 77 -38 84 -46 17
-24 50 -14 50 16 0 22 -4 25 -40 25 -45 1 -139 39 -115 47 8 3 53 20 100 38
47 17 96 33 110 34 14 2 31 4 38 4 16 3 15 37 -2 51 -17 14 -43 5 -49 -18 -4
-18 -132 -75 -199 -88 -28 -5 -31 -4 -24 13 5 10 17 45 28 77 15 42 27 61 44
67 27 10 32 41 10 59 -20 17 -46 2 -46 -26 0 -14 -14 -65 -32 -114 l-32 -88
-50 -11 c-28 -7 -108 -14 -178 -17 l-127 -6 26 68 c32 80 45 87 155 88 79 1
94 9 82 42 -7 18 -50 20 -57 2 -4 -11 -126 -42 -134 -34 -1 2 16 32 40 68 27
41 50 65 64 67 28 4 45 25 37 46 -6 16 -44 22 -57 9z"/>
</g>
</svg>
